<svg width="40" height="48" viewBox="0 0 40 48" fill="none" xmlns="http://www.w3.org/2000/svg">
<path d="M28.6569 0.295617C26.4312 0.552405 23.2812 2.51383 21.7171 4.61185C20.8147 5.81384 20.2843 6.9612 19.8249 8.68769L19.5952 9.55094L19.6062 10.4688C19.6171 10.9715 19.6444 11.4413 19.6718 11.5178C19.7429 11.6981 19.8796 11.7254 20.8421 11.7309C21.6405 11.7364 21.6897 11.7309 22.3733 11.5288C24.1999 10.9988 25.5397 10.2011 26.4913 9.07014C26.721 8.7915 27.0655 8.41998 27.246 8.23421C27.8476 7.64415 28.6187 6.33288 29.0452 5.19646C29.4718 4.05457 29.6632 2.99463 29.7179 1.48668L29.7507 0.519624L29.6085 0.37757C29.4499 0.219127 29.3624 0.213663 28.6569 0.295617Z" fill="#717171"/>
<path d="M28.1484 11.5889C27.0656 11.6435 24.1508 12.4521 22.0562 13.2716C20.7875 13.7688 20.7875 13.7688 20.5359 13.8125C20.0984 13.8836 19.0265 13.5721 17.1836 12.8291C16.2047 12.4412 15.1984 12.1461 13.7109 11.8074C13.0875 11.6708 12.0539 11.6544 11.6054 11.7801C11.425 11.8293 10.8562 11.944 10.3422 12.0314C9.23747 12.2281 8.61403 12.4193 7.78278 12.8291C5.27263 14.0529 3.56091 15.8122 2.20466 18.5659C1.6031 19.7788 1.16013 20.9644 0.832002 22.2265C0.345283 24.1005 0.334346 27.6955 0.810127 29.8755C0.864814 30.1432 0.914033 30.4601 0.914033 30.5858C0.914033 30.848 0.963252 31.0447 1.42263 32.8532C1.84919 34.525 1.80544 34.3884 2.62028 36.4318C3.76325 39.3002 4.12419 39.934 6.45935 43.152C7.41638 44.4687 7.9031 45.0697 8.60856 45.7855C9.34685 46.5394 9.94294 46.9765 10.7851 47.3918C11.7367 47.8562 12.1523 47.96 13.0273 47.9545C14.1484 47.9545 15.0508 47.725 16.7679 47.0039C17.8508 46.5504 17.9218 46.5285 19.8906 46.1242C20.4812 45.9986 21.0281 46.0095 21.8593 46.1461C22.1437 46.1898 22.5703 46.2553 22.8 46.2881C23.2648 46.3537 23.7351 46.5067 24.9492 46.9929C26.4148 47.583 27.4484 47.8452 28.5312 47.9108C30.1062 48.0092 31.6265 47.3098 33.2508 45.7527C34.9078 44.1519 36.4554 41.961 38.0195 39.0052C38.4406 38.2075 39.1133 36.5739 39.2281 36.0821C39.2773 35.8854 39.3593 35.6396 39.4195 35.5412C39.4742 35.4429 39.5234 35.3063 39.5234 35.2462C39.5234 35.0495 39.1242 34.7381 38.4187 34.383C37.0898 33.7 35.7828 32.5308 34.9023 31.2141C34.2734 30.2689 33.639 28.8538 33.4804 28.0179C33.2125 26.6411 33.1359 25.1331 33.289 24.0841C33.3273 23.8109 33.464 23.2372 33.5953 22.8001C34.1586 20.9043 34.5468 20.1448 35.4273 19.2051C35.6953 18.9265 35.914 18.6697 35.914 18.6478C35.914 18.5549 37.2539 17.4349 37.582 17.2546C37.7625 17.1508 37.9922 16.9923 38.0906 16.894C38.3914 16.599 38.3476 16.4842 37.5929 15.5991C36.5812 14.4135 35.307 13.441 33.8086 12.7144C32.8734 12.2609 32.2281 12.0369 31.3258 11.8511C30.4015 11.6544 29.0234 11.5397 28.1484 11.5889Z" fill="#717171"/>
</svg>
